<svg width="424" height="321" xmlns="http://www.w3.org/2000/svg" xmlns:xlink="http://www.w3.org/1999/xlink" xml:space="preserve" overflow="hidden"><g transform="translate(-2716 -36)"><g><g><g><g><path d="M0 0 421.455 0 421.455 321 0 321Z" fill="#E12726" fill-rule="nonzero" fill-opacity="1" transform="matrix(1.00129 0 0 1 2717 36)"/><path d="M364.649 144.03C361.179 145.062 357.334 146.002 355.645 146.002 357.896 141.779 360.713 138.4 363.526 135.678 365.215 133.989 368.028 131.834 370.845 131.834 373.284 131.834 374.316 132.866 374.316 135.213 374.316 139.715 369.622 142.436 364.649 144.03ZM369.53 159.235C370.092 158.482 369.06 157.45 368.311 158.482 365.964 161.112 361.836 164.582 357.43 164.582 353.677 164.582 351.517 162.048 351.517 157.92 351.517 154.824 353.115 150.883 354.334 148.911 357.056 148.35 362.494 147.126 365.119 146.377 374.033 143.655 379.096 140.56 379.096 134.834 379.096 130.893 376.379 129.487 372.717 129.487 361.932 129.487 345.795 144.875 345.795 159.514 345.795 164.208 348.8 167.865 353.959 167.865 360.713 167.865 366.06 163.737 369.53 159.235ZM373.754 59.0129C374.128 59.0129 374.594 58.7343 374.503 58.1681L372.905 47.287C372.718 46.5336 372.439 46.3464 371.969 46.3464 371.686 46.3464 371.408 46.5336 371.123 47.0039 370.654 47.94 369.904 48.7847 368.498 48.7847 366.06 48.7847 363.809 47.0039 357.991 47.0039 350.393 47.0039 340.357 50.287 340.357 61.2685 340.357 72.2456 349.174 75.9076 356.772 78.6245 364.745 81.5377 371.123 83.7888 371.123 92.0444 371.123 101.336 364.558 104.336 358.366 104.336 351.517 104.336 343.453 101.053 340.544 90.2636 340.261 89.3229 339.983 89.1357 339.325 89.1357 338.764 89.1357 338.293 89.5101 338.293 90.5421L338.293 104.528C338.293 105.368 338.763 105.747 339.229 105.747 339.603 105.747 339.982 105.464 340.17 105.09 340.732 104.245 341.389 103.492 342.983 103.492 346.079 103.492 349.736 107.245 358.65 107.245 366.435 107.245 379.663 104.807 379.663 89.4188 379.663 83.3185 377.129 75.4373 362.307 71.3095 351.8 68.3963 348.422 63.99 348.422 58.5471 348.422 53.949 351.143 49.4422 358.741 49.4422 362.495 49.4422 368.59 50.4742 372.718 58.4508 373.188 59.0129 373.471 59.0129 373.754 59.0129ZM328.631 56.3873C329.754 56.3873 330.883 56.1042 331.069 55.917 330.973 57.5152 329.567 59.9535 325.722 60.7023 325.439 60.7982 325.161 61.0813 325.161 61.4557 325.161 61.8302 325.439 62.2046 326.006 62.2046 331.631 62.2046 334.823 57.1362 334.823 52.9171 334.823 49.1637 332.289 46.908 329.193 46.908 326.942 46.908 324.034 48.0358 324.034 51.6933 324.033 55.0723 326.471 56.3873 328.631 56.3873ZM338.48 134.272C338.48 136.619 337.544 139.811 335.571 143.281 331.727 149.473 328.722 150.692 326.097 150.692 323.846 150.692 322.91 148.911 322.91 146.286 322.91 144.03 323.846 141.03 325.626 138.4 328.257 134.272 331.914 130.802 335.197 130.802 337.353 130.802 338.48 131.925 338.48 134.272ZM320.563 182.788C311.558 182.788 308.836 177.532 308.836 174.998 308.836 172.559 309.777 170.961 312.307 169.272 313.996 168.052 316.531 166.833 318.499 166.085 320.75 167.02 324.033 168.993 325.161 170.025 330.038 173.404 330.973 175.372 330.973 177.158 330.973 181.66 324.033 182.788 320.563 182.788ZM349.079 132.866C350.019 132.866 350.955 132.395 350.955 130.706 350.955 129.204 349.548 128.738 348.234 128.738 346.736 128.738 344.859 129.112 342.886 130.423 342.42 130.802 341.202 131.363 340.448 130.893 338.95 129.861 337.539 129.112 333.882 129.112 330.224 129.112 324.877 131.272 321.407 135.962 318.969 139.432 318.498 141.875 318.498 144.313 318.498 146.751 319.53 148.537 320.188 149.569 320.375 149.847 320.466 149.943 320.466 150.226 320.466 150.788 319.717 151.162 318.498 151.537 316.343 152.29 312.681 154.354 312.681 158.107 312.681 160.546 314.653 162.893 316.809 164.395 316.809 164.395 312.307 165.615 308.74 167.587 305.928 169.084 302.832 171.528 302.832 174.902 302.832 178.847 306.21 185.226 320.001 185.226 328.069 185.226 333.133 182.317 335.101 180.066 336.603 178.377 336.79 176.404 336.79 175.185 336.79 170.774 331.914 166.646 326.566 163.642 323.096 161.674 318.124 159.327 318.124 155.857 318.124 154.916 318.402 153.98 319.343 153.414 320 152.948 321.032 152.665 322.155 152.665 323.658 152.665 325.626 153.135 327.032 153.135 331.443 153.135 337.352 151.633 341.105 143.843 342.046 141.683 342.511 139.432 342.511 137.556 342.511 135.117 342.138 134.556 342.138 133.428 342.138 132.492 343.078 131.926 344.95 131.926 347.485 131.834 347.485 132.866 349.079 132.866ZM298.704 144.03C295.234 145.062 291.481 146.002 289.7 146.002 292.047 141.779 294.86 138.4 297.672 135.678 299.362 133.989 302.174 131.834 304.992 131.834 307.334 131.834 308.462 132.866 308.462 135.213 308.462 139.715 303.772 142.436 298.704 144.03ZM303.585 159.235C304.239 158.482 303.115 157.45 302.361 158.482 300.019 161.112 295.891 164.582 291.48 164.582 287.636 164.582 285.572 162.048 285.572 157.92 285.572 154.824 287.166 150.883 288.389 148.911 291.106 148.35 296.641 147.126 299.175 146.377 308.179 143.655 313.152 140.56 313.152 134.834 313.152 130.893 310.43 129.487 306.772 129.487 295.987 129.487 279.85 144.875 279.85 159.514 279.85 164.208 282.946 167.865 288.106 167.865 294.764 167.865 300.111 163.737 303.585 159.235ZM279.755 118.414C279.755 118.697 279.664 119.163 279.38 119.633 272.815 133.989 266.248 148.254 259.87 162.61 259.495 163.363 258.934 164.769 258.934 165.801 258.934 167.02 259.87 168.052 261.089 168.052 261.746 168.052 262.591 167.774 263.153 167.586 266.72 166.175 270.472 162.235 272.724 158.856 273.19 158.107 272.35 157.45 271.783 157.92 270.847 158.765 268.312 162.143 265.687 163.641 265.217 163.924 264.746 163.924 265.03 162.892L285.385 117.665C285.76 116.82 285.855 116.349 285.855 115.879 285.855 115.318 285.481 115.034 284.915 115.034 283.979 115.034 282.759 115.318 281.353 115.409 280.134 115.505 277.974 115.692 276.097 115.788 275.632 115.788 275.348 116.254 275.348 116.633 275.348 117.098 275.723 117.381 276.285 117.381 277.225 117.381 278.257 117.381 279.289 117.665 279.664 117.852 279.755 118.131 279.755 118.414ZM315.59 87.1677C315.59 82.1906 319.248 81.7249 322.439 81.4418 323.658 81.2546 323.941 79.282 322.156 79.282L297.485 79.282C295.796 79.282 295.796 81.5377 297.485 81.629 302.362 81.9121 306.303 82.8481 306.303 87.5421L306.303 96.4553C306.303 98.4278 305.366 99.8342 304.239 100.583 299.928 104.149 294.485 104.432 291.293 104.432 275.627 104.432 268.595 90.9211 268.595 77.4053 268.595 66.4283 274.129 49.255 292.234 49.255 308.462 49.255 314.279 59.7663 316.248 63.7982 316.905 65.0219 318.407 64.7388 318.407 63.7982L318.407 50.8532C318.407 49.6294 316.622 49.3509 316.248 50.8532 315.873 52.3509 314.932 53.2915 313.713 53.2915 312.777 53.2915 311.558 52.5381 311.088 52.2595 306.211 49.1637 301.522 46.7208 292.234 46.7208 277.225 46.7208 258.746 54.2271 258.746 77.0309 258.746 100.021 276.097 107.154 291.293 107.154 306.211 107.154 314.092 99.5511 315.499 98.615L315.499 87.1677 315.59 87.1677ZM261.559 118.414C261.559 118.697 261.463 119.163 261.184 119.633 254.618 133.989 248.052 148.254 241.673 162.61 241.39 163.363 240.732 164.769 240.732 165.801 240.732 167.02 241.673 168.052 242.892 168.052 243.549 168.052 244.394 167.774 244.956 167.586 248.518 166.175 252.271 162.235 254.522 158.856 254.992 158.107 254.148 157.45 253.586 157.92 252.741 158.765 250.116 162.143 247.486 163.641 247.02 163.924 246.549 163.924 246.833 162.892L267.189 117.665C267.563 116.82 267.655 116.349 267.655 115.879 267.655 115.318 267.28 115.034 266.623 115.034 265.686 115.034 264.467 115.318 263.061 115.409 261.841 115.505 259.682 115.692 257.805 115.788 257.339 115.788 257.056 116.254 257.056 116.633 257.056 117.098 257.43 117.381 257.992 117.381 258.933 117.381 259.965 117.381 260.997 117.665 261.463 117.852 261.559 118.131 261.559 118.414ZM232.572 130.615C236.23 130.615 237.075 133.71 236.983 136.71 236.983 146.564 225.723 165.331 218.125 165.331 215.029 165.331 213.719 163.08 213.719 160.171 213.719 149.007 224.883 130.615 232.572 130.615ZM230.883 128.359C219.911 128.359 209.874 142.153 209.874 156.327 209.874 162.144 212.5 167.866 219.627 167.866 230.883 167.866 240.171 151.729 240.171 141.592 240.171 135.213 238.668 128.359 230.883 128.359ZM191.674 47.0952C189.984 47.0952 189.984 48.7847 190.925 49.0678 192.797 49.4422 196.737 49.8166 196.737 54.981 196.833 67.0858 196.833 83.0354 196.363 95.9849 196.272 100.583 194.861 104.528 190.925 104.994 189.422 105.09 189.422 106.779 190.454 106.779L208.089 106.779C209.029 106.779 209.404 105.181 208.185 104.994 205.464 104.528 201.052 104.528 200.774 95.9849 200.4 87.6335 200.117 56.2001 200.117 56.2001L244.299 105.368 247.957 105.368C247.957 105.368 247.957 59.3919 248.24 55.917 248.518 51.8851 249.834 49.6294 254.24 49.3509 256.4 49.1637 256.025 47.1911 254.523 47.1911L236.605 47.1911C234.45 47.1911 235.012 49.1637 235.948 49.1637 237.92 49.4422 244.017 50.0997 244.299 56.0129 244.583 64.5516 244.957 91.1996 244.957 91.1996L205.651 47.1911 191.674 47.1911 191.674 47.0952ZM207.431 133.24C207.902 133.24 208.276 132.957 208.372 132.491L212.308 120.007C212.591 119.259 212.217 118.788 211.559 118.788 211.281 118.788 210.997 118.884 210.714 119.163 209.965 119.916 209.121 120.665 208.371 120.665 207.997 120.665 207.618 120.386 207.244 120.103 203.773 115.788 198.143 115.131 195.426 115.131 182.947 115.131 172.161 123.295 165.874 133.336 162.029 139.245 160.061 145.815 160.061 152.29 160.061 162.61 167.189 168.336 176.477 168.336 180.604 168.336 183.791 167.865 189.422 165.518 190.641 165.052 192.047 164.486 192.892 164.486 194.298 164.486 194.394 166.554 194.485 168.431 194.485 169.18 194.956 169.367 195.426 169.367 195.8 169.367 196.175 169.18 196.362 168.614L201.618 153.697C201.992 152.478 201.522 152.007 201.051 152.007 200.303 152.007 199.928 152.291 199.367 153.322 197.02 156.98 195.33 159.327 187.17 163.363 183.7 164.957 179.76 165.989 176.568 165.989 169.627 165.989 166.906 160.642 166.906 153.98 166.906 145.159 171.034 135.962 177.413 128.268 181.449 123.2 187.732 117.474 194.956 117.474 201.896 117.474 207.056 122.638 206.307 132.113 206.212 132.866 206.778 133.24 207.431 133.24ZM175.915 97.3959 175.915 55.917C175.915 50.7573 179.573 49.3509 183.513 49.0678 185.011 49.0678 185.198 47.0952 183.23 47.0952L158.747 47.0952C157.057 47.0952 156.779 48.9719 158.468 49.0678 162.126 49.4422 166.532 51.2276 166.532 55.917L166.532 97.3959C166.532 101.994 164.842 104.994 159.404 104.994 157.244 104.994 157.811 106.779 159.404 106.779L183.513 106.779C184.733 106.779 185.107 104.994 183.043 104.994 177.883 104.994 175.915 101.524 175.915 97.3959ZM118.035 56.0129C118.035 57.5152 117.565 58.8256 116.912 59.4832 114.66 63.7069 111.469 68.2091 106.871 73.4647 95.1493 86.6015 79.4829 102.085 74.1359 105.651 72.4465 106.871 71.9762 105.651 71.9762 104.432 71.9762 103.492 71.9762 80.3139 72.3506 65.3963 72.7296 50.4742 83.8892 50.1952 86.7979 49.9125 89.7978 49.6294 88.7659 46.8167 87.081 46.8167L41.1131 46.8167C39.1451 46.8167 38.9579 49.7253 40.6428 49.7253 51.4326 49.7253 55.5604 56.3873 55.6563 61.2685 55.9348 68.3963 56.3097 133.336 55.6563 148.724 55.0901 163.642 45.8025 164.112 41.8665 164.394 39.2364 164.582 39.2364 167.304 42.1451 167.304 43.8345 167.304 56.122 166.929 64.9393 166.929 75.1674 166.929 81.3546 166.929 89.6101 167.304 92.0485 167.399 91.0165 164.112 89.3316 164.112 75.446 164.112 73.0076 155.573 72.2588 149.66 71.5054 143.843 71.6972 117.007 71.9757 113.816 72.2588 110.437 75.1674 111.377 76.3866 112.126 83.2317 116.724 125.071 167.304 125.071 167.304L158.842 167.304C160.811 167.304 160.34 164.486 158.842 164.394 153.025 163.925 147.582 163.455 139.797 157.075 132.295 150.975 89.049 99.4598 89.049 99.4598 89.049 99.4598 108.282 79.1907 123.195 65.4877 137.642 52.2595 145.706 50.287 147.395 49.8166 149.181 49.3509 148.898 46.7208 146.459 46.908 142.519 47.0952 134.45 47.3783 128.825 47.3783 119.067 47.3783 110.907 46.7213 109.218 46.7213 106.592 46.7213 106.03 49.6299 108.935 50.0997 110.907 50.4742 112.784 50.6614 114.848 51.4148 117.286 52.3509 118.035 54.1362 118.035 56.0129ZM325.347 187.573C324.407 187.573 324.128 189.262 325.439 189.262 326.941 189.262 330.037 189.637 330.037 194.139L329.754 230.362C329.754 234.303 328.347 237.586 324.69 237.586 323.471 237.586 323.471 239.184 324.407 239.184L339.512 239.184C340.448 239.184 340.448 237.586 339.325 237.586 337.165 237.586 333.32 236.649 333.224 230.362L332.851 193.486C332.851 193.486 371.498 238.901 371.781 239.184L374.407 239.184 374.69 195.641C374.69 191.326 376.566 189.075 381.256 189.075 382.192 189.075 382.192 187.573 381.256 187.573L364.371 187.573C363.43 187.573 363.43 189.075 364.371 189.075 366.06 189.075 371.311 189.353 371.408 194.988L371.781 226.705 338.572 187.573 325.347 187.573ZM278.728 213.002C278.728 199.773 284.823 189.637 296.079 189.637 306.115 189.637 313.713 199.303 313.713 213.002 313.713 229.892 306.869 237.307 296.079 237.307 285.572 237.307 278.728 227.17 278.728 213.002ZM296.079 239.654C311.184 239.654 321.969 229.143 321.969 213.002 321.969 198.833 311.462 187.29 296.079 187.29 281.07 187.29 270.285 199.02 270.285 213.002 270.285 228.202 280.508 239.654 296.079 239.654ZM223.755 194.518C223.755 189.824 226.477 189.637 232.76 189.637 243.737 189.637 254.897 195.08 254.897 212.532 254.897 229.518 245.613 236.742 233.321 236.742L230.696 236.742C227.413 236.742 223.755 236.088 223.755 229.614L223.755 194.518ZM211.093 187.29C209.404 187.29 209.682 189.262 210.715 189.262 212.687 189.262 215.97 190.198 215.97 194.139L215.97 230.924C215.97 234.864 215.029 237.307 210.436 237.307 209.308 237.307 209.308 239.184 210.34 239.184L234.92 239.184C245.705 239.184 263.527 234.019 263.527 212.723 263.527 191.138 248.897 187.29 234.636 187.29L211.093 187.29ZM150.304 187.573C149.368 187.573 149.085 189.262 150.4 189.262 151.902 189.262 154.993 189.637 154.993 194.139L154.715 230.362C154.715 234.303 153.308 237.586 149.646 237.586 148.427 237.586 148.427 239.184 149.368 239.184L164.468 239.184C165.409 239.184 165.409 237.586 164.281 237.586 162.126 237.586 158.276 236.649 158.185 230.362L157.811 193.486C157.811 193.486 196.459 238.901 196.737 239.184L199.367 239.184 199.646 195.641C199.646 191.326 201.522 189.075 206.211 189.075 207.152 189.075 207.152 187.573 206.211 187.573L189.326 187.573C188.39 187.573 188.39 189.075 189.326 189.075 191.016 189.075 196.271 189.353 196.363 194.988L196.737 226.705 163.532 187.573 150.304 187.573ZM103.309 213.002C103.309 199.773 109.405 189.637 120.66 189.637 130.701 189.637 138.299 199.303 138.299 213.002 138.299 229.892 131.45 237.307 120.66 237.307 110.154 237.307 103.309 227.17 103.309 213.002ZM120.756 239.654C135.857 239.654 146.646 229.143 146.646 213.002 146.646 198.833 136.14 187.29 120.756 187.29 105.747 187.29 94.9576 199.02 94.9576 213.002 94.9571 228.202 105.186 239.654 120.756 239.654ZM374.033 267.521 45.6153 267.521 45.6153 274.654 374.033 274.654 374.033 267.521ZM374.033 257.576 45.6153 257.576 45.6153 260.672 374.033 260.672 374.033 257.576ZM44.8665 187.664C43.6473 187.664 43.7386 189.353 44.8665 189.262 49.2774 189.262 51.9029 191.138 51.9029 195.641L51.9029 230.645C51.9029 235.901 48.2454 237.307 45.3368 237.307 44.3962 237.307 44.0217 239.184 45.6153 239.184L90.738 239.184 93.4594 224.732C93.7379 223.326 92.2402 223.23 91.8613 224.17 87.8293 235.805 79.5738 236.837 70.8524 236.837 61.8434 236.837 59.7795 235.335 59.7795 231.207L59.7795 194.705C59.7795 190.294 63.9078 189.353 65.9717 189.353 67.2867 189.353 66.9123 187.664 65.8803 187.664L44.8665 187.664Z" fill="#FFFFFF" fill-rule="evenodd" fill-opacity="1" transform="matrix(1.00129 0 0 1 2717 36)"/></g></g></g></g></g></svg>
